# xmcd
#
# Track frame offsets:
#	150
#	22772
#	39570
#	68877
#	80940
#	98552
#	112400
#	142902
#	168562
#
# Disc length: 2610
#
# Revision: 4
# Processed by: cddbd v1.5.1PL0 Copyright (c) Steve Scherf et al.
# Submitted via: ExactAudioCopy v0.90b4
# Normalized: r3:TDELIM( - )
#
DISCID=760a3009
DTITLE=Orchester Anthony Ventura - Liebesträume
DYEAR=1900
DGENRE=
TTITLE0=Chopin - Fantasie Impromptu
TTITLE1=Boccherini - Menuett
TTITLE2=Mendelssohn-Bartholdy - Andante
TTITLE3=Offenbach - Barcarole
TTITLE4=Rodrigo - Aranjuez
TTITLE5=Mozart - Symphonie Nr. 40
TTITLE6=Chopin - Regentropfen
TTITLE7=Mozart - Kleine Nachtmusik
TTITLE8=Mozart - Adagio
EXTD=
EXTT0=
EXTT1=
EXTT2=
EXTT3=
EXTT4=
EXTT5=
EXTT6=
EXTT7=
EXTT8=
PLAYORDER=
